<?xml version="1.0" encoding="UTF-8"?>
<svg id="Layer_1" xmlns="http://www.w3.org/2000/svg" xmlns:xlink="http://www.w3.org/1999/xlink" version="1.1" viewBox="0 0 192 192">
  <!-- Generator: Adobe Illustrator 29.5.1, SVG Export Plug-In . SVG Version: 2.1.0 Build 141)  -->
  <defs>
    <style>
      .st0 {
        fill: none;
      }

      .st1 {
        fill: #fcc509;
      }

      .st2 {
        fill-rule: evenodd;
      }

      .st3 {
        fill: #fff;
      }

      .st4 {
        clip-path: url(#clippath);
      }
    </style>
    <clipPath id="clippath">
      <rect class="st0" x="21.24" y="49.92" width="164.24" height="208.03"/>
    </clipPath>
  </defs>
  <circle class="st1" cx="96" cy="96" r="96"/>
  <g class="st4">
    <path class="st2" d="M53.64,63.2l12.89,25.6,14.04,27.87,16.07-1.97,31.02-3.81,10.32-20.5,12.89-25.6c-2.31-1.14-3.9-3.53-3.9-6.28,0-3.87,3.14-7.01,7.01-7.01s7.01,3.14,7.01,7.01-3.14,7.01-7.01,7.01c-.75,0-1.47-.12-2.14-.34l-10.17,25.94-7.44,18.97,17.31-2.12c11.43-1.4,21.94,2.63,29.47,10.28,1.65,1.67,3.15,3.51,4.48,5.49-4.18-1.08-8.64-1.4-13.25-.84-19.13,2.35-37.42,4.59-54.89,6.73-16.75,2.05-32.8,4.02-48.21,5.91-8.62,1.06-15.95,6.41-20.8,14.01-4.42,6.93-6.8,15.75-6.34,25.06.01.27.05.81.05.81,0,0-5.69-3.54-12.32-9.96-4.45-4.31-8.47-9.2-8.47-9.2,0,0,2.51-15.55,6.38-21.63,4.85-7.6,12.18-12.95,20.8-14.01l25.39-3.11-10.97-27.97-10.17-25.94c-.68.22-1.4.33-2.14.33-3.87,0-7.01-3.14-7.01-7.01s3.14-7.01,7.01-7.01,7.01,3.14,7.01,7.01c0,2.75-1.59,5.13-3.9,6.28"/>
  </g>
  <polygon class="st3" points="49.22 49.33 63.68 39.39 57.82 55.93 71.74 66.62 54.2 66.16 48.33 82.7 43.35 65.87 25.81 65.41 40.27 55.47 35.29 38.64 49.22 49.33"/>
  <polygon class="st3" points="150.18 50.88 161.35 37.09 160.42 54.82 176.99 61.18 159.84 65.77 158.91 83.5 149.25 68.61 132.1 73.2 143.27 59.41 133.6 44.52 150.18 50.88"/>
</svg>