<svg xmlns="http://www.w3.org/2000/svg" xmlns:xlink="http://www.w3.org/1999/xlink" width="512" zoomAndPan="magnify" viewBox="0 0 384 383.999986" height="512" preserveAspectRatio="xMidYMid meet" version="1.0"><defs><clipPath id="1267687343"><path d="M 56.113281 33.652344 L 327.882812 33.652344 L 327.882812 377.882812 L 56.113281 377.882812 Z M 56.113281 33.652344 " clip-rule="nonzero"/></clipPath><clipPath id="a893f21581"><path d="M 73 15 L 131 15 L 131 76 L 73 76 Z M 73 15 " clip-rule="nonzero"/></clipPath><clipPath id="f78c782aec"><path d="M 66.304688 25.4375 L 123.265625 6.082031 L 141.6875 60.289062 L 84.726562 79.644531 Z M 66.304688 25.4375 " clip-rule="nonzero"/></clipPath><clipPath id="8a665e6311"><path d="M 94.742188 15.773438 L 108.492188 34.199219 L 130.214844 26.816406 L 116.988281 45.585938 L 130.738281 64.007812 L 108.816406 57.183594 L 95.589844 75.953125 L 95.265625 52.96875 L 73.34375 46.144531 L 95.066406 38.761719 Z M 94.742188 15.773438 " clip-rule="nonzero"/></clipPath><clipPath id="3acae573c9"><path d="M 249 17 L 308 17 L 308 78 L 249 78 Z M 249 17 " clip-rule="nonzero"/></clipPath><clipPath id="e3c791aeda"><path d="M 259.558594 6.597656 L 315.664062 28.296875 L 295.011719 81.695312 L 238.90625 59.992188 Z M 259.558594 6.597656 " clip-rule="nonzero"/></clipPath><clipPath id="58b1dab208"><path d="M 287.570312 17.429688 L 286.292969 40.382812 L 307.691406 48.660156 L 285.503906 54.570312 L 284.226562 77.523438 L 271.792969 58.222656 L 249.605469 64.128906 L 264.105469 46.292969 L 251.667969 26.992188 L 273.066406 35.269531 Z M 287.570312 17.429688 " clip-rule="nonzero"/></clipPath></defs><g clip-path="url(#1267687343)"><path fill="#000000" d="M 109.726562 55.636719 L 131.058594 98 L 154.28125 144.113281 L 180.882812 140.851562 L 232.203125 134.558594 L 249.285156 100.640625 L 270.617188 58.277344 C 266.796875 56.382812 264.164062 52.4375 264.164062 47.882812 C 264.164062 41.480469 269.359375 36.289062 275.757812 36.289062 C 282.160156 36.289062 287.355469 41.480469 287.355469 47.882812 C 287.355469 54.285156 282.160156 59.476562 275.757812 59.476562 C 274.523438 59.476562 273.328125 59.28125 272.210938 58.921875 L 255.378906 101.839844 L 243.070312 133.226562 L 271.710938 129.710938 C 290.621094 127.394531 308.011719 134.070312 320.476562 146.714844 C 323.203125 149.480469 325.683594 152.519531 327.882812 155.792969 C 320.972656 154 313.589844 153.46875 305.960938 154.40625 C 274.300781 158.289062 244.046875 162 215.132812 165.546875 C 187.421875 168.945312 160.847656 172.199219 135.355469 175.324219 C 121.089844 177.074219 108.957031 185.925781 100.941406 198.507812 C 93.128906 210.769531 89.171875 226.597656 90.679688 243.15625 C 92.347656 261.511719 93.988281 279.539062 95.59375 297.195312 C 97.171875 314.566406 98.722656 331.628906 100.246094 348.367188 C 101.230469 359.242188 104.882812 369.371094 110.347656 377.882812 C 99.75 375.773438 90.050781 369.832031 82.453125 361.492188 C 73.507812 351.667969 67.324219 338.347656 65.992188 323.671875 C 64.472656 306.9375 62.917969 289.871094 61.339844 272.503906 C 59.734375 254.847656 58.097656 236.816406 56.425781 218.464844 C 54.921875 201.902344 58.875 186.074219 66.691406 173.8125 C 74.707031 161.234375 86.839844 152.378906 101.105469 150.632812 L 143.117188 145.484375 L 124.964844 99.203125 L 108.128906 56.285156 C 107.011719 56.644531 105.824219 56.839844 104.585938 56.839844 C 98.183594 56.839844 92.988281 51.648438 92.988281 45.246094 C 92.988281 38.84375 98.183594 33.652344 104.585938 33.652344 C 110.988281 33.652344 116.179688 38.84375 116.179688 45.246094 C 116.179688 49.800781 113.546875 53.742188 109.726562 55.636719 " fill-opacity="1" fill-rule="evenodd"/></g><g clip-path="url(#a893f21581)"><g clip-path="url(#f78c782aec)"><g clip-path="url(#8a665e6311)"><path fill="#fcc509" d="M 66.304688 25.4375 L 123.265625 6.082031 L 141.6875 60.289062 L 84.726562 79.644531 Z M 66.304688 25.4375 " fill-opacity="1" fill-rule="nonzero"/></g></g></g><g clip-path="url(#3acae573c9)"><g clip-path="url(#e3c791aeda)"><g clip-path="url(#58b1dab208)"><path fill="#fcc509" d="M 259.558594 6.597656 L 315.664062 28.296875 L 295.011719 81.695312 L 238.90625 59.992188 Z M 259.558594 6.597656 " fill-opacity="1" fill-rule="nonzero"/></g></g></g></svg>