<?xml version="1.0" encoding="UTF-8"?>
<svg id="Layer_1" xmlns="http://www.w3.org/2000/svg" xmlns:xlink="http://www.w3.org/1999/xlink" version="1.1" viewBox="0 0 192 192">
  <!-- Generator: Adobe Illustrator 29.5.1, SVG Export Plug-In . SVG Version: 2.1.0 Build 141)  -->
  <defs>
    <style>
      .st0 {
        fill: none;
      }

      .st1 {
        fill: #fff;
        fill-rule: evenodd;
      }

      .st2 {
        fill: #fcc509;
      }

      .st3 {
        clip-path: url(#clippath);
      }
    </style>
    <clipPath id="clippath">
      <rect class="st0" x="21.24" y="49.92" width="164.24" height="208.03"/>
    </clipPath>
  </defs>
  <circle cx="96" cy="96" r="96"/>
  <g class="st3">
    <path class="st1" d="M53.56,63.28l12.89,25.6,14.04,27.87,16.07-1.97,31.02-3.81,10.32-20.5,12.89-25.6c-2.31-1.14-3.9-3.53-3.9-6.28,0-3.87,3.14-7.01,7.01-7.01s7.01,3.14,7.01,7.01-3.14,7.01-7.01,7.01c-.75,0-1.47-.12-2.14-.34l-10.17,25.94-7.44,18.97,17.31-2.12c11.43-1.4,21.94,2.63,29.47,10.28,1.65,1.67,3.15,3.51,4.48,5.49-4.18-1.08-8.64-1.4-13.25-.84-19.13,2.35-37.42,4.59-54.89,6.73-16.75,2.05-32.8,4.02-48.21,5.91-8.62,1.06-15.95,6.41-20.8,14.01-4.42,6.93-6.8,15.75-6.34,25.06.01.27.05.81.05.81,0,0-3-1.14-12.32-9.96-7.6-7.19-8.47-9.2-8.47-9.2,0,0,2.51-15.55,6.38-21.63,4.85-7.6,12.18-12.95,20.8-14.01l25.39-3.11-10.97-27.97-10.17-25.94c-.68.22-1.4.33-2.14.33-3.87,0-7.01-3.14-7.01-7.01s3.14-7.01,7.01-7.01,7.01,3.14,7.01,7.01c0,2.75-1.59,5.13-3.9,6.28"/>
  </g>
  <polygon class="st2" points="49.41 48.56 63.88 38.62 58.02 55.16 71.94 65.85 54.39 65.39 48.53 81.93 43.55 65.1 26 64.64 40.47 54.7 35.49 37.87 49.41 48.56"/>
  <polygon class="st2" points="152 49.48 163.17 35.68 162.24 53.41 178.81 59.77 161.67 64.36 160.74 82.09 151.07 67.2 133.92 71.8 145.1 58 135.43 43.12 152 49.48"/>
</svg>